# xmcd CD database file generated by OrangeCD 5.2
#
# Track frame offsets:
#	151
#	16772
#	35650
#	53320
#	68687
#
# Disc length: 1141 seconds
#
# Revision: 4
# Processed by: cddbd v1.5.1PL0 Copyright (c) Steve Scherf et al.
# Submitted via: OrangeCD 5.2
#
DISCID=30047305
DTITLE=Debelah Morgan - Dance With Me (single)
DYEAR=2000
DGENRE=R&B
TTITLE0=Dance With Me (Album Version)
TTITLE1=Dance With Me (Soul Central Mix)
TTITLE2=Dance With Me (Boom Boom Remix)
TTITLE3=Dance With Me (JP Radio Mix)
TTITLE4=Dance With Me (Jack and Jill Edit)
EXTD=
EXTT0=
EXTT1=
EXTT2=
EXTT3=
EXTT4=
PLAYORDER=
